<?xml version="1.0" encoding="UTF-8"?>
<svg width="18px" height="18px" viewBox="0 0 18 18" version="1.1" xmlns="http://www.w3.org/2000/svg" xmlns:xlink="http://www.w3.org/1999/xlink">
    <title>加载中</title>
    <g id="运营端" stroke="none" stroke-width="1" fill="none" fill-rule="evenodd">
        <g id="资源管理/设备诊断" transform="translate(-1154.000000, -397.000000)" fill-rule="nonzero">
            <g id="Group/List" transform="translate(220.000000, 256.000000)">
                <g id="编组" transform="translate(24.000000, 80.000000)">
                    <g id="Group/List/1" transform="translate(0.000000, 47.000000)">
                        <g id="编组-2" transform="translate(904.000000, 14.000000)">
                            <g id="加载中" transform="translate(6.000000, 0.000000)">
                                <rect id="矩形" fill="#000000" opacity="0" x="0" y="0" width="18" height="18"></rect>
                                <path d="M3.7265625,9.65917969 L1.74902344,9.65917969 C1.35351562,9.65917969 1.08984375,9.39550781 1.08984375,9 C1.08984375,8.60449219 1.35351562,8.34082031 1.74902344,8.34082031 L3.7265625,8.34082031 C4.12207031,8.34082031 4.38574219,8.60449219 4.38574219,9 C4.38574219,9.39550781 4.12207031,9.65917969 3.7265625,9.65917969 Z" id="路径" fill-opacity="0.5" fill="#FFFFFF"></path>
                                <path d="M4.45166016,7.02246094 C4.31982422,7.02246094 4.18798828,7.02246094 4.12207031,6.95654297 L2.40820313,5.96777344 C2.07861328,5.77001953 1.94677734,5.37451172 2.14453125,5.04492188 C2.34228516,4.71533203 2.73779297,4.64941406 3.06738281,4.78125 L4.78125,5.77001953 C5.11083984,5.96777344 5.17675781,6.36328125 4.97900391,6.69287109 C4.91308594,6.890625 4.64941406,7.02246094 4.45166016,7.02246094 Z" id="路径" fill-opacity="0.5" fill="#FFFFFF"></path>
                                <path d="M6.36328125,5.11083984 C6.16552734,5.11083984 5.90185547,4.97900391 5.77001953,4.78125 L4.78125,3.06738281 C4.64941406,2.73779297 4.71533203,2.34228516 5.04492187,2.14453125 C5.37451172,1.94677734 5.77001953,2.07861328 5.96777344,2.40820312 L6.95654297,4.12207031 C7.08837891,4.45166016 7.02246094,4.84716797 6.69287109,4.97900391 C6.56103516,5.04492187 6.49511719,5.11083984 6.36328125,5.11083984 Z" id="路径" fill-opacity="0.5" fill="#FFFFFF"></path>
                                <path d="M9,4.38574219 C8.60449219,4.38574219 8.34082031,4.12207031 8.34082031,3.7265625 L8.34082031,1.74902344 C8.34082031,1.35351562 8.60449219,1.08984375 9,1.08984375 C9.39550781,1.08984375 9.65917969,1.35351562 9.65917969,1.74902344 L9.65917969,3.7265625 C9.65917969,4.12207031 9.39550781,4.38574219 9,4.38574219 Z" id="路径" fill="#1890FF"></path>
                                <path d="M9,16.9101562 C8.60449219,16.9101562 8.34082031,16.6464844 8.34082031,16.2509766 L8.34082031,14.2734375 C8.34082031,13.8779297 8.60449219,13.6142578 9,13.6142578 C9.39550781,13.6142578 9.65917969,13.8779297 9.65917969,14.2734375 L9.65917969,16.2509766 C9.65917969,16.6464844 9.39550781,16.9101562 9,16.9101562 Z" id="路径" fill-opacity="0.7" fill="#1890FF"></path>
                                <path d="M13.5483398,7.02246094 C13.3505859,7.02246094 13.0869141,6.890625 12.9550781,6.69287109 C12.7573242,6.36328125 12.8891602,5.96777344 13.21875,5.77001953 L14.9326172,4.78125 C15.262207,4.58349609 15.6577148,4.71533203 15.8554688,5.04492187 C16.0532227,5.37451172 15.9213867,5.77001953 15.5917969,5.96777344 L13.8779297,6.95654297 C13.8120117,7.02246094 13.6801758,7.02246094 13.5483398,7.02246094 Z" id="路径" fill-opacity="0.9" fill="#1890FF"></path>
                                <path d="M16.2509766,9.65917969 L14.2734375,9.65917969 C13.8779297,9.65917969 13.6142578,9.39550781 13.6142578,9 C13.6142578,8.60449219 13.8779297,8.34082031 14.2734375,8.34082031 L16.2509766,8.34082031 C16.6464844,8.34082031 16.9101562,8.60449219 16.9101562,9 C16.9101562,9.39550781 16.6464844,9.65917969 16.2509766,9.65917969 Z" id="路径" fill-opacity="0.9" fill="#1890FF"></path>
                                <path d="M2.73779297,13.284668 C2.54003906,13.284668 2.27636719,13.152832 2.14453125,12.9550781 C1.94677734,12.6254883 2.07861328,12.2299805 2.40820313,12.0322266 L4.12207031,11.043457 C4.45166016,10.8457031 4.84716797,10.9775391 5.04492188,11.3071289 C5.24267578,11.6367188 5.11083984,12.0322266 4.78125,12.2299805 L3.06738281,13.21875 C2.93554688,13.284668 2.80371094,13.284668 2.73779297,13.284668 Z" id="路径" fill-opacity="0.6" fill="#1890FF"></path>
                                <path d="M11.6367187,5.11083984 C11.5048828,5.11083984 11.4389648,5.11083984 11.3071289,5.04492188 C10.9775391,4.84716797 10.9116211,4.45166016 11.043457,4.12207031 L12.0322266,2.40820313 C12.2299805,2.07861328 12.6254883,2.01269531 12.9550781,2.14453125 C13.284668,2.34228516 13.3505859,2.73779297 13.21875,3.06738281 L12.2299805,4.78125 C12.0981445,4.97900391 11.8344727,5.11083984 11.6367187,5.11083984 Z" id="路径" fill="#1890FF"></path>
                                <path d="M5.37451172,15.9213867 C5.24267578,15.9213867 5.17675781,15.9213867 5.04492187,15.8554688 C4.71533203,15.6577148 4.64941406,15.262207 4.78125,14.9326172 L5.77001953,13.21875 C5.96777344,12.9550781 6.36328125,12.8232422 6.69287109,13.0209961 C7.02246094,13.21875 7.08837891,13.6142578 6.95654297,13.9438477 L5.96777344,15.5917969 C5.8359375,15.7895508 5.57226562,15.9213867 5.37451172,15.9213867 Z" id="路径" fill-opacity="0.7" fill="#1890FF"></path>
                                <path d="M15.262207,13.284668 C15.1303711,13.284668 15.0644531,13.284668 14.9326172,13.21875 L13.21875,12.2299805 C12.8891602,12.0322266 12.8232422,11.6367188 12.9550781,11.3071289 C13.152832,10.9775391 13.5483398,10.9116211 13.8779297,11.043457 L15.5917969,12.0322266 C15.9213867,12.2299805 15.9873047,12.6254883 15.8554687,12.9550781 C15.7236328,13.152832 15.5258789,13.284668 15.262207,13.284668 Z" id="路径" fill-opacity="0.8" fill="#1890FF"></path>
                                <path d="M12.6254883,15.9213867 C12.4277344,15.9213867 12.1640625,15.7895508 12.0322266,15.5917969 L11.043457,13.8779297 C10.8457031,13.5483398 10.9775391,13.152832 11.3071289,12.9550781 C11.6367188,12.7573242 12.0322266,12.8891602 12.2299805,13.21875 L13.21875,14.9326172 C13.4165039,15.262207 13.284668,15.6577148 12.9550781,15.8554688 C12.8232422,15.9213867 12.7573242,15.9213867 12.6254883,15.9213867 Z" id="路径" fill-opacity="0.8" fill="#1890FF"></path>
                            </g>
                        </g>
                    </g>
                </g>
            </g>
        </g>
    </g>
</svg>